<svg id="svg" version="1.1" xmlns="http://www.w3.org/2000/svg" xmlns:xlink="http://www.w3.org/1999/xlink" width="400" height="66.66666666666667" viewBox="0, 0, 400,66.66666666666667"><g id="svgg"><path id="path0" d="M301.250 4.014 C 300.333 4.085,299.379 4.105,299.129 4.059 C 298.879 4.013,298.593 4.026,298.493 4.088 C 298.392 4.150,297.922 4.227,297.447 4.259 C 296.684 4.310,294.690 4.719,294.000 4.965 C 293.862 5.014,293.712 5.066,293.667 5.079 C 292.886 5.309,290.867 6.593,290.844 6.875 C 290.830 7.036,290.167 7.703,290.167 7.555 C 290.167 7.390,288.375 9.724,288.368 9.898 C 288.365 9.979,288.290 10.092,288.202 10.148 C 287.506 10.593,286.424 14.333,286.991 14.333 C 287.088 14.333,287.167 14.465,287.167 14.627 C 287.167 15.502,288.973 16.530,290.282 16.400 C 291.205 16.309,291.750 16.225,291.750 16.174 C 291.750 16.155,291.900 16.117,292.083 16.090 C 292.403 16.043,293.043 15.918,293.750 15.764 C 293.933 15.725,294.421 15.566,294.833 15.413 C 295.246 15.259,295.696 15.121,295.833 15.105 C 296.204 15.062,298.008 14.498,298.583 14.245 C 299.083 14.025,301.879 13.219,302.667 13.068 C 302.896 13.024,303.308 12.917,303.583 12.831 C 303.858 12.744,304.322 12.656,304.613 12.636 C 304.905 12.615,305.107 12.538,305.062 12.465 C 305.017 12.393,305.229 12.328,305.532 12.321 C 305.835 12.314,306.233 12.279,306.417 12.245 C 306.600 12.210,307.264 12.130,307.893 12.067 L 309.036 11.953 308.945 12.602 C 308.894 12.958,308.810 13.550,308.758 13.917 C 308.706 14.283,308.586 14.964,308.492 15.429 C 308.399 15.894,308.278 16.494,308.225 16.762 C 308.171 17.030,308.130 17.362,308.132 17.500 C 308.135 17.637,308.071 17.975,307.991 18.250 C 307.805 18.889,307.648 19.635,307.586 20.171 C 307.560 20.403,307.417 21.065,307.269 21.643 C 307.121 22.221,307.000 22.913,307.000 23.180 C 307.000 23.448,306.921 23.667,306.823 23.667 C 306.726 23.667,306.685 23.729,306.732 23.805 C 306.814 23.936,306.449 25.522,305.883 27.500 C 305.738 28.004,305.603 28.567,305.581 28.750 C 305.560 28.933,305.527 29.083,305.509 29.083 C 305.472 29.083,305.419 29.305,305.280 30.027 C 305.233 30.271,305.109 30.629,305.006 30.822 C 304.903 31.015,304.863 31.247,304.919 31.337 C 304.974 31.427,304.936 31.500,304.833 31.500 C 304.731 31.500,304.685 31.561,304.731 31.636 C 304.777 31.711,304.700 32.105,304.558 32.511 C 304.417 32.918,304.267 33.438,304.225 33.667 C 304.183 33.896,304.025 34.496,303.874 35.000 C 303.724 35.504,303.591 35.954,303.580 36.000 C 303.569 36.046,303.458 36.421,303.334 36.833 C 303.210 37.246,303.125 37.677,303.145 37.792 C 303.165 37.906,303.099 38.000,302.997 38.000 C 302.896 38.000,302.862 38.078,302.921 38.174 C 302.980 38.270,302.958 38.438,302.871 38.549 C 302.784 38.660,302.652 38.975,302.578 39.250 C 302.504 39.525,302.431 39.787,302.416 39.833 C 302.400 39.879,302.350 40.029,302.304 40.167 C 301.883 41.415,301.667 42.171,301.667 42.397 C 301.667 42.545,301.585 42.667,301.486 42.667 C 301.387 42.667,301.339 42.760,301.380 42.875 C 301.421 42.990,301.349 43.292,301.220 43.547 C 301.092 43.801,301.031 44.083,301.086 44.172 C 301.141 44.261,301.094 44.333,300.982 44.333 C 300.870 44.333,300.824 44.380,300.881 44.437 C 300.938 44.494,300.762 44.981,300.490 45.519 C 300.219 46.058,300.003 46.538,300.011 46.587 C 300.019 46.636,299.816 47.218,299.560 47.880 C 299.303 48.542,299.091 49.142,299.089 49.214 C 299.086 49.287,299.008 49.399,298.917 49.464 C 298.748 49.585,298.630 49.912,298.618 50.292 C 298.614 50.406,298.549 50.500,298.472 50.500 C 298.396 50.500,298.333 50.582,298.333 50.683 C 298.333 50.836,297.874 51.949,297.731 52.143 C 297.707 52.175,297.394 51.894,297.036 51.518 C 296.678 51.141,296.430 50.831,296.484 50.828 C 296.539 50.825,296.406 50.675,296.190 50.494 C 295.973 50.314,295.855 50.167,295.927 50.167 C 295.999 50.167,295.906 49.998,295.721 49.792 C 295.535 49.585,295.335 49.281,295.276 49.114 C 295.217 48.948,295.101 48.854,295.019 48.905 C 294.936 48.956,294.823 48.816,294.768 48.594 C 294.712 48.372,294.558 48.082,294.425 47.949 C 294.293 47.816,293.769 46.892,293.263 45.896 C 292.756 44.899,292.263 43.991,292.167 43.878 C 292.071 43.765,291.985 43.615,291.975 43.545 C 291.908 43.058,291.351 41.939,290.641 40.867 C 290.380 40.472,290.167 40.095,290.167 40.029 C 290.167 39.774,288.319 37.999,288.042 37.988 C 287.881 37.981,287.563 37.940,287.333 37.898 C 286.485 37.740,285.000 38.704,285.000 39.411 C 285.000 39.552,284.925 39.667,284.833 39.667 C 284.742 39.667,284.667 39.741,284.667 39.831 C 284.667 39.921,284.448 40.352,284.180 40.789 C 283.739 41.510,282.761 44.000,282.919 44.000 C 282.956 44.000,282.868 44.319,282.725 44.708 C 282.140 46.302,282.436 51.003,283.167 51.734 C 283.259 51.825,283.333 52.031,283.333 52.192 C 283.333 52.352,283.465 52.560,283.625 52.653 C 283.785 52.747,283.855 52.825,283.781 52.828 C 283.571 52.836,284.794 54.298,285.968 55.445 C 286.970 56.422,287.429 56.752,287.708 56.693 C 287.777 56.679,287.815 56.760,287.792 56.875 C 287.769 56.990,287.844 57.065,287.958 57.042 C 288.073 57.019,288.167 57.062,288.167 57.137 C 288.167 57.213,288.523 57.443,288.958 57.649 C 289.394 57.854,289.946 58.128,290.185 58.257 C 290.424 58.386,290.668 58.443,290.727 58.384 C 290.785 58.326,290.833 58.356,290.833 58.451 C 290.833 58.547,291.077 58.682,291.375 58.752 C 291.981 58.895,292.148 58.943,292.208 58.992 C 292.231 59.010,292.362 59.048,292.500 59.076 C 292.637 59.104,293.160 59.249,293.661 59.399 C 294.516 59.653,296.852 59.898,298.167 59.871 C 300.002 59.832,300.604 59.778,300.784 59.633 C 300.895 59.544,301.052 59.512,301.133 59.563 C 301.215 59.613,301.574 59.568,301.932 59.464 C 302.290 59.359,302.677 59.290,302.792 59.311 C 302.906 59.331,303.000 59.265,303.000 59.164 C 303.000 59.063,303.075 59.027,303.167 59.083 C 303.258 59.140,303.333 59.123,303.333 59.046 C 303.333 58.915,304.144 58.520,304.643 58.408 C 304.875 58.356,305.313 57.999,306.319 57.042 C 306.633 56.744,306.951 56.500,307.028 56.500 C 307.104 56.500,307.167 56.393,307.167 56.261 C 307.167 56.130,307.318 55.975,307.502 55.916 C 307.687 55.857,307.797 55.742,307.746 55.660 C 307.695 55.578,307.807 55.415,307.994 55.299 C 308.180 55.182,308.333 55.018,308.333 54.933 C 308.333 54.849,308.616 54.398,308.962 53.932 C 309.840 52.746,310.374 51.886,310.836 50.917 C 311.054 50.458,311.330 49.984,311.450 49.863 C 311.569 49.742,311.667 49.573,311.667 49.488 C 311.667 49.178,311.709 49.075,312.013 48.648 C 312.184 48.408,312.277 48.166,312.221 48.110 C 312.165 48.054,312.242 47.961,312.392 47.903 C 312.542 47.846,312.626 47.736,312.580 47.661 C 312.533 47.585,312.572 47.475,312.667 47.417 C 312.761 47.358,312.796 47.240,312.743 47.155 C 312.690 47.070,312.721 47.000,312.812 47.000 C 312.903 47.000,313.030 46.831,313.095 46.625 C 313.160 46.419,313.353 46.070,313.525 45.850 C 313.697 45.630,313.883 45.163,313.940 44.811 C 313.996 44.460,314.107 44.213,314.187 44.263 C 314.268 44.312,314.343 44.274,314.354 44.177 C 314.393 43.847,314.428 43.750,314.662 43.333 C 315.367 42.075,316.351 39.849,316.356 39.500 C 316.357 39.454,316.449 39.304,316.561 39.167 C 316.754 38.930,316.929 38.568,317.411 37.417 C 317.526 37.142,317.709 36.728,317.817 36.497 C 317.926 36.266,318.027 35.915,318.042 35.717 C 318.057 35.519,318.117 35.386,318.176 35.423 C 318.235 35.459,318.383 35.173,318.505 34.786 C 318.627 34.400,318.782 34.008,318.850 33.915 C 319.010 33.699,319.520 32.313,319.540 32.042 C 319.549 31.927,319.622 31.833,319.704 31.833 C 319.786 31.833,319.807 31.758,319.750 31.667 C 319.693 31.575,319.726 31.500,319.823 31.500 C 319.921 31.500,320.000 31.313,320.000 31.083 C 320.000 30.854,320.064 30.667,320.142 30.667 C 320.220 30.667,320.416 30.178,320.578 29.581 C 320.739 28.984,321.011 28.223,321.180 27.890 C 321.350 27.557,321.450 27.220,321.401 27.142 C 321.353 27.064,321.398 27.000,321.500 27.000 C 321.602 27.000,321.646 26.935,321.597 26.856 C 321.548 26.777,321.647 26.421,321.816 26.064 C 321.986 25.708,322.219 25.117,322.336 24.750 C 322.452 24.383,322.658 23.783,322.792 23.417 C 323.138 22.472,323.853 20.297,323.916 20.000 C 323.945 19.862,324.121 19.364,324.308 18.893 C 324.495 18.422,324.613 18.002,324.572 17.960 C 324.530 17.919,324.614 17.602,324.758 17.256 C 324.903 16.911,324.981 16.524,324.932 16.397 C 324.884 16.270,324.929 16.167,325.033 16.167 C 325.137 16.167,325.181 16.125,325.130 16.075 C 325.079 16.024,325.138 15.649,325.261 15.241 C 325.384 14.834,325.441 14.500,325.388 14.500 C 325.336 14.500,325.369 14.406,325.461 14.292 C 325.554 14.177,325.674 13.783,325.727 13.417 C 325.779 13.050,325.941 12.194,326.086 11.515 C 326.230 10.836,326.311 10.182,326.265 10.062 C 326.219 9.942,326.237 9.810,326.305 9.768 C 326.373 9.725,326.421 9.134,326.412 8.453 C 326.394 7.048,325.921 6.323,324.919 6.163 C 324.876 6.157,324.643 6.048,324.400 5.922 C 324.157 5.796,323.855 5.733,323.729 5.781 C 323.603 5.829,323.500 5.782,323.500 5.675 C 323.500 5.568,323.427 5.526,323.337 5.581 C 323.247 5.637,323.027 5.603,322.847 5.507 C 322.668 5.411,322.272 5.300,321.969 5.261 C 321.665 5.221,321.417 5.176,321.417 5.159 C 321.417 5.142,321.229 5.101,321.000 5.067 C 320.499 4.992,319.917 4.868,319.917 4.835 C 319.917 4.812,319.509 4.757,318.211 4.605 C 317.823 4.560,317.437 4.481,317.354 4.429 C 317.270 4.378,316.463 4.296,315.559 4.248 C 314.656 4.200,312.904 4.089,311.667 4.002 C 309.077 3.819,303.686 3.825,301.250 4.014 M46.956 4.266 C 46.934 4.289,46.428 4.351,45.833 4.404 C 45.237 4.457,44.337 4.585,43.833 4.688 C 43.329 4.791,42.804 4.897,42.667 4.925 C 42.529 4.952,42.398 4.990,42.375 5.008 C 42.352 5.027,42.277 5.052,42.208 5.064 C 41.474 5.195,39.685 6.101,39.672 6.349 C 39.669 6.404,39.847 6.659,40.068 6.916 C 40.289 7.173,40.436 7.473,40.394 7.582 C 40.352 7.691,40.434 7.876,40.576 7.994 C 40.717 8.111,40.833 8.305,40.833 8.424 C 40.833 8.544,41.040 8.887,41.292 9.188 C 41.544 9.489,41.643 9.669,41.511 9.589 C 41.380 9.509,41.474 9.707,41.721 10.030 L 42.169 10.617 41.756 11.225 C 41.529 11.560,41.384 11.833,41.433 11.833 C 41.482 11.833,41.386 12.040,41.220 12.292 C 41.053 12.544,40.730 13.125,40.502 13.583 C 40.273 14.042,39.955 14.562,39.793 14.740 C 39.632 14.917,39.500 15.131,39.500 15.214 C 39.500 15.297,39.331 15.602,39.125 15.891 C 38.919 16.180,38.740 16.454,38.728 16.500 C 38.576 17.057,38.426 17.326,38.223 17.404 C 38.089 17.455,38.022 17.568,38.075 17.654 C 38.128 17.739,37.945 18.144,37.669 18.554 C 37.393 18.963,37.167 19.381,37.167 19.483 C 37.167 19.584,37.079 19.667,36.972 19.667 C 36.865 19.667,36.825 19.714,36.883 19.772 C 36.942 19.830,36.843 20.064,36.663 20.292 C 36.484 20.520,36.379 20.772,36.429 20.853 C 36.479 20.934,36.442 21.000,36.346 21.000 C 36.251 21.000,36.127 21.182,36.071 21.405 C 36.016 21.627,35.859 21.852,35.724 21.903 C 35.589 21.955,35.519 22.062,35.567 22.140 C 35.615 22.219,35.526 22.428,35.369 22.605 C 34.960 23.065,34.457 24.000,34.616 24.003 C 34.690 24.004,34.665 24.060,34.561 24.128 C 34.457 24.195,34.139 24.682,33.854 25.209 C 33.570 25.736,33.148 26.468,32.916 26.834 C 32.685 27.200,32.532 27.500,32.576 27.500 C 32.620 27.500,32.471 27.773,32.245 28.107 C 32.019 28.440,31.833 28.815,31.833 28.940 C 31.833 29.065,31.760 29.167,31.670 29.167 C 31.580 29.167,31.456 29.373,31.394 29.625 C 31.332 29.877,31.236 30.121,31.179 30.167 C 30.921 30.375,29.794 32.333,29.932 32.333 C 29.983 32.333,29.869 32.531,29.679 32.772 C 29.489 33.014,29.333 33.314,29.333 33.439 C 29.333 33.564,29.264 33.667,29.180 33.667 C 29.095 33.667,28.934 33.944,28.823 34.282 C 28.711 34.621,28.483 35.045,28.316 35.224 C 28.148 35.404,28.040 35.596,28.074 35.652 C 28.272 35.972,27.674 36.252,26.750 36.270 C 24.607 36.312,22.475 36.731,21.969 37.210 C 21.848 37.324,21.450 37.638,21.083 37.908 C 20.257 38.517,19.000 39.764,19.000 39.974 C 19.000 40.060,18.891 40.173,18.757 40.224 C 18.623 40.276,18.230 40.752,17.882 41.284 C 17.535 41.815,17.199 42.289,17.136 42.337 C 16.416 42.879,16.512 44.845,17.295 45.629 C 17.899 46.232,19.737 46.991,20.292 46.866 C 20.406 46.840,20.500 46.901,20.500 47.003 C 20.500 47.105,20.592 47.131,20.708 47.061 C 20.914 46.938,20.637 47.348,20.208 47.803 C 20.094 47.924,20.000 48.114,20.000 48.225 C 20.000 48.335,19.869 48.552,19.708 48.707 C 19.100 49.293,18.833 49.616,18.833 49.766 C 18.833 49.851,18.643 50.126,18.410 50.377 C 18.177 50.628,18.046 50.836,18.118 50.838 C 18.191 50.841,18.117 50.921,17.955 51.015 C 17.792 51.110,17.703 51.258,17.756 51.344 C 17.810 51.430,17.792 51.501,17.718 51.501 C 17.644 51.502,17.397 51.783,17.168 52.126 C 16.940 52.469,16.701 52.789,16.637 52.837 C 16.446 52.979,15.667 54.170,15.667 54.318 C 15.667 54.393,15.504 54.662,15.305 54.915 C 14.817 55.535,14.325 56.519,14.561 56.402 C 14.665 56.351,14.619 56.416,14.458 56.548 C 13.431 57.389,14.395 59.152,16.035 59.432 C 17.723 59.720,22.583 59.522,22.583 59.166 C 22.583 59.151,22.733 59.120,22.917 59.098 C 23.402 59.038,24.566 58.608,24.685 58.445 C 24.741 58.368,24.825 58.330,24.871 58.361 C 25.013 58.456,27.177 57.000,27.276 56.743 C 27.327 56.609,27.430 56.500,27.505 56.500 C 27.830 56.500,30.167 53.630,30.167 53.231 C 30.167 53.162,30.314 52.948,30.494 52.756 C 30.940 52.282,32.134 50.121,32.256 49.568 C 32.278 49.468,32.481 49.093,32.707 48.734 C 32.933 48.376,33.171 47.915,33.237 47.709 L 33.355 47.335 37.219 47.445 C 41.966 47.580,45.778 47.578,46.333 47.442 C 47.056 47.264,47.741 47.111,48.000 47.072 C 48.137 47.050,49.053 46.748,50.035 46.399 C 51.992 45.704,51.931 45.704,52.057 46.417 C 52.166 47.040,52.388 47.732,52.735 48.541 C 52.883 48.884,52.999 49.204,52.994 49.252 C 52.966 49.505,53.582 51.167,53.704 51.167 C 53.783 51.167,53.833 51.260,53.814 51.375 C 53.795 51.490,53.878 51.808,53.999 52.083 C 54.119 52.358,54.239 52.658,54.264 52.750 C 54.289 52.842,54.573 53.517,54.895 54.250 C 55.434 55.478,55.759 55.993,56.542 56.848 C 56.702 57.023,56.833 57.229,56.833 57.305 C 56.833 57.596,58.806 58.968,59.417 59.102 C 59.508 59.122,60.053 59.262,60.626 59.412 C 62.121 59.805,64.720 59.578,65.426 58.993 C 65.550 58.889,65.722 58.848,65.807 58.901 C 65.997 59.018,69.268 57.399,69.684 56.982 C 69.848 56.818,70.230 56.559,70.533 56.405 C 70.836 56.252,71.215 56.011,71.375 55.871 C 71.535 55.730,71.667 55.664,71.667 55.723 C 71.667 55.783,71.847 55.675,72.067 55.483 L 72.467 55.135 70.836 51.859 C 69.939 50.057,69.154 48.415,69.091 48.208 C 69.029 48.002,68.903 47.833,68.812 47.833 C 68.721 47.833,68.682 47.776,68.725 47.707 C 68.768 47.637,68.686 47.318,68.542 46.998 C 68.397 46.678,68.267 46.379,68.251 46.333 C 68.235 46.288,68.135 46.039,68.028 45.781 C 67.921 45.523,67.833 45.288,67.833 45.260 C 67.833 45.231,67.707 44.917,67.552 44.562 C 67.398 44.207,67.289 43.849,67.311 43.765 C 67.333 43.682,67.258 43.557,67.146 43.487 C 67.033 43.417,66.925 43.260,66.907 43.138 C 66.889 43.016,66.740 42.617,66.577 42.250 C 66.228 41.467,66.258 41.549,66.088 40.917 C 66.015 40.642,65.899 40.342,65.832 40.250 C 65.701 40.071,65.294 38.902,65.229 38.517 C 65.207 38.388,65.128 38.238,65.053 38.183 C 64.978 38.128,64.910 38.008,64.903 37.917 C 64.859 37.404,64.604 36.667,64.469 36.667 C 64.384 36.667,64.354 36.601,64.404 36.521 C 64.480 36.397,64.220 35.399,63.876 34.500 C 63.823 34.362,63.791 34.196,63.805 34.131 C 63.818 34.065,63.743 33.803,63.638 33.547 C 63.532 33.292,63.457 33.032,63.469 32.969 C 63.482 32.906,63.388 32.557,63.259 32.193 C 63.131 31.828,63.070 31.486,63.124 31.432 C 63.178 31.378,63.139 31.333,63.038 31.333 C 62.937 31.333,62.863 31.202,62.873 31.042 C 62.884 30.881,62.801 30.478,62.690 30.144 C 62.578 29.811,62.505 29.474,62.527 29.394 C 62.549 29.315,62.442 28.688,62.288 28.000 C 61.819 25.902,61.696 25.239,61.576 24.167 C 61.530 23.754,61.394 22.997,61.273 22.483 C 61.153 21.970,61.081 21.384,61.111 21.181 C 61.149 20.936,61.103 20.853,60.975 20.932 C 60.860 21.003,60.827 20.979,60.892 20.873 C 60.953 20.775,60.923 20.323,60.826 19.870 C 60.728 19.416,60.620 18.829,60.586 18.564 C 60.551 18.300,60.512 18.083,60.499 18.083 C 60.468 18.083,60.379 17.723,60.251 17.083 C 60.196 16.808,60.071 16.283,59.973 15.917 C 59.875 15.550,59.783 15.175,59.768 15.083 C 59.753 14.992,59.682 14.823,59.610 14.708 C 59.539 14.594,59.521 14.500,59.571 14.500 C 59.621 14.500,59.506 14.106,59.315 13.625 C 59.124 13.144,58.940 12.608,58.906 12.434 C 58.760 11.699,58.461 11.000,58.293 11.000 C 58.193 11.000,58.160 10.951,58.220 10.891 C 58.280 10.831,58.174 10.531,57.984 10.224 C 57.795 9.918,57.686 9.667,57.743 9.667 C 57.942 9.667,56.430 7.574,55.678 6.810 C 54.882 6.002,53.038 4.740,52.882 4.896 C 52.832 4.946,52.594 4.887,52.354 4.765 C 51.649 4.408,47.224 3.998,46.956 4.266 M356.436 4.286 C 356.401 4.321,355.970 4.382,355.478 4.421 C 354.986 4.461,354.396 4.533,354.167 4.583 C 353.938 4.633,353.450 4.711,353.083 4.757 C 352.717 4.803,352.393 4.910,352.364 4.995 C 352.335 5.079,352.211 5.109,352.088 5.062 C 351.964 5.015,351.641 5.091,351.370 5.231 C 351.098 5.372,350.829 5.440,350.771 5.382 C 350.714 5.325,350.667 5.365,350.667 5.472 C 350.667 5.579,350.610 5.648,350.542 5.626 C 350.387 5.576,349.773 6.011,349.607 6.288 C 349.487 6.490,350.096 7.805,350.417 8.035 C 350.508 8.101,350.593 8.213,350.606 8.286 C 350.669 8.657,350.885 9.167,350.979 9.167 C 351.037 9.167,351.188 9.410,351.315 9.708 C 351.441 10.006,351.665 10.347,351.813 10.465 C 352.025 10.635,352.036 10.708,351.866 10.813 C 351.654 10.944,351.010 12.041,350.288 13.500 C 350.084 13.912,349.859 14.276,349.788 14.307 C 349.716 14.338,349.548 14.601,349.413 14.890 C 349.278 15.180,349.009 15.679,348.814 16.000 C 348.619 16.321,348.446 16.673,348.429 16.784 C 348.413 16.894,348.275 17.122,348.123 17.290 C 347.971 17.458,347.690 17.949,347.499 18.381 C 347.307 18.813,347.080 19.167,346.992 19.167 C 346.905 19.167,346.833 19.312,346.833 19.490 C 346.833 19.668,346.757 19.861,346.664 19.918 C 346.512 20.012,345.952 20.998,345.814 21.417 C 345.784 21.508,345.662 21.696,345.545 21.833 C 345.427 21.971,345.336 22.145,345.343 22.221 C 345.350 22.297,345.202 22.492,345.014 22.655 C 344.826 22.817,344.714 22.992,344.766 23.043 C 344.843 23.121,344.113 24.393,343.835 24.667 C 343.788 24.712,343.725 24.863,343.695 25.000 C 343.665 25.137,343.546 25.363,343.431 25.500 C 343.070 25.932,342.158 27.667,342.290 27.669 C 342.360 27.671,342.340 27.727,342.246 27.794 C 341.950 28.007,341.425 28.908,341.471 29.125 C 341.495 29.240,341.441 29.333,341.352 29.333 C 341.262 29.333,341.136 29.502,341.072 29.708 C 341.008 29.915,340.907 30.121,340.849 30.167 C 340.790 30.212,340.548 30.625,340.310 31.083 C 340.073 31.542,339.601 32.404,339.263 33.000 C 338.924 33.596,338.605 34.215,338.554 34.375 C 338.503 34.535,338.390 34.667,338.304 34.667 C 338.218 34.667,338.193 34.742,338.250 34.833 C 338.307 34.925,338.274 35.000,338.177 35.000 C 338.079 35.000,337.998 35.094,337.996 35.208 C 337.985 35.825,337.368 36.241,336.513 36.209 C 336.048 36.192,335.667 36.238,335.667 36.311 C 335.667 36.384,335.292 36.412,334.833 36.372 C 334.375 36.332,334.000 36.363,334.000 36.441 C 334.000 36.519,333.831 36.591,333.625 36.601 C 332.919 36.635,331.849 36.998,331.454 37.337 C 331.342 37.433,330.992 37.697,330.676 37.923 C 330.360 38.148,330.147 38.333,330.202 38.333 C 330.257 38.333,329.841 38.806,329.276 39.383 C 328.170 40.515,327.756 41.003,327.715 41.224 C 327.701 41.301,327.576 41.451,327.439 41.557 C 325.614 42.967,326.417 46.313,328.649 46.600 C 328.796 46.619,329.160 46.711,329.458 46.806 C 329.756 46.900,330.002 46.926,330.005 46.863 C 330.008 46.801,330.087 46.882,330.181 47.044 C 330.354 47.341,330.058 47.909,329.296 48.740 C 329.133 48.917,329.000 49.117,329.000 49.182 C 329.000 49.284,328.396 50.080,327.624 50.996 C 327.123 51.590,326.531 52.581,326.605 52.702 C 326.650 52.774,326.620 52.833,326.538 52.833 C 326.362 52.833,325.373 54.177,325.301 54.515 C 325.273 54.644,325.119 54.848,324.958 54.968 C 324.798 55.088,324.667 55.331,324.667 55.509 C 324.667 55.688,324.592 55.833,324.500 55.833 C 324.408 55.833,324.333 55.977,324.333 56.153 C 324.333 56.328,324.246 56.501,324.140 56.537 C 323.906 56.615,323.796 58.119,323.997 58.494 C 324.208 58.888,325.515 59.488,326.037 59.430 C 326.287 59.403,326.454 59.440,326.409 59.512 C 326.324 59.650,329.720 59.597,330.585 59.447 C 330.860 59.399,331.447 59.317,331.889 59.265 C 332.331 59.213,332.780 59.115,332.888 59.046 C 332.995 58.978,333.121 58.917,333.167 58.912 C 333.484 58.875,334.672 58.406,335.099 58.149 C 335.383 57.978,335.671 57.893,335.738 57.961 C 335.806 58.028,335.836 57.974,335.806 57.841 C 335.775 57.708,335.840 57.595,335.951 57.591 C 336.061 57.587,336.455 57.304,336.826 56.964 C 337.197 56.623,337.500 56.390,337.500 56.446 C 337.500 56.502,337.778 56.181,338.118 55.732 C 338.457 55.284,338.851 54.825,338.993 54.714 C 339.134 54.602,339.175 54.507,339.083 54.503 C 338.983 54.498,338.989 54.446,339.097 54.372 C 339.368 54.188,341.222 51.283,341.222 51.042 C 341.222 50.927,341.285 50.833,341.361 50.833 C 341.438 50.833,341.500 50.757,341.500 50.663 C 341.500 50.570,341.690 50.192,341.923 49.824 C 342.155 49.456,342.300 49.082,342.245 48.993 C 342.190 48.904,342.256 48.789,342.391 48.737 C 342.606 48.654,342.860 48.084,342.904 47.583 C 342.914 47.475,344.321 47.442,346.918 47.488 C 352.258 47.583,355.493 47.576,356.000 47.466 C 356.229 47.417,356.711 47.318,357.072 47.247 C 357.432 47.176,358.163 46.947,358.697 46.738 C 359.230 46.529,359.667 46.392,359.667 46.432 C 359.667 46.473,359.950 46.362,360.295 46.186 C 361.143 45.754,361.536 45.697,361.592 46.000 C 361.617 46.137,361.754 46.569,361.895 46.958 C 362.036 47.348,362.122 47.667,362.085 47.667 C 362.048 47.667,362.200 48.077,362.422 48.579 C 362.644 49.081,362.856 49.662,362.895 49.871 C 362.933 50.079,363.079 50.512,363.220 50.833 C 363.449 51.356,363.678 51.937,363.746 52.167 C 363.759 52.212,363.897 52.540,364.052 52.895 C 364.207 53.250,364.333 53.575,364.333 53.618 C 364.333 53.832,365.416 55.833,365.532 55.833 C 365.606 55.833,365.667 55.948,365.667 56.089 C 365.667 57.012,368.965 59.341,370.344 59.392 C 370.704 59.406,370.999 59.469,370.999 59.532 C 371.001 59.715,372.662 59.672,373.667 59.462 C 374.171 59.357,374.621 59.263,374.667 59.254 C 374.712 59.246,374.900 59.158,375.083 59.059 C 375.267 58.961,375.671 58.832,375.982 58.773 C 376.293 58.714,376.655 58.535,376.786 58.374 C 376.925 58.205,376.971 58.188,376.897 58.333 C 376.787 58.548,376.809 58.551,377.049 58.356 C 377.374 58.093,378.873 57.253,379.542 56.961 C 379.794 56.851,380.000 56.697,380.000 56.620 C 380.000 56.543,380.075 56.527,380.167 56.583 C 380.258 56.640,380.333 56.565,380.333 56.417 C 380.333 56.268,380.397 56.186,380.475 56.234 C 380.553 56.282,380.778 56.171,380.975 55.988 C 381.172 55.804,381.333 55.697,381.333 55.750 C 381.333 55.803,381.534 55.661,381.779 55.434 C 382.155 55.085,382.191 54.980,382.009 54.760 C 381.890 54.617,381.840 54.500,381.898 54.500 C 381.957 54.500,381.829 54.219,381.615 53.875 C 381.401 53.531,380.758 52.275,380.186 51.083 C 379.615 49.892,379.020 48.658,378.865 48.342 C 378.710 48.026,378.602 47.708,378.625 47.634 C 378.648 47.560,378.592 47.500,378.500 47.500 C 378.408 47.500,378.350 47.444,378.370 47.375 C 378.391 47.306,378.195 46.805,377.934 46.261 C 377.674 45.718,377.444 45.193,377.423 45.095 C 377.402 44.997,377.286 44.692,377.166 44.417 C 377.045 44.142,376.962 43.823,376.981 43.708 C 376.999 43.594,376.940 43.500,376.848 43.500 C 376.757 43.500,376.634 43.243,376.575 42.930 C 376.516 42.616,376.288 42.003,376.067 41.568 C 375.847 41.133,375.667 40.655,375.667 40.505 C 375.667 40.356,375.596 40.162,375.510 40.075 C 375.424 39.988,375.318 39.729,375.275 39.500 C 375.233 39.271,375.007 38.676,374.774 38.178 C 374.542 37.680,374.389 37.211,374.435 37.136 C 374.482 37.061,374.443 37.000,374.348 37.000 C 374.254 37.000,374.220 36.888,374.273 36.750 C 374.326 36.613,374.302 36.500,374.221 36.500 C 374.139 36.500,374.057 36.309,374.037 36.074 C 374.018 35.840,373.927 35.508,373.835 35.336 C 373.743 35.164,373.634 34.758,373.592 34.433 C 373.550 34.108,373.438 33.695,373.342 33.515 C 373.245 33.336,373.167 32.959,373.167 32.678 C 373.167 32.397,373.079 32.167,372.972 32.167 C 372.865 32.167,372.819 32.125,372.870 32.075 C 372.921 32.024,372.855 31.630,372.725 31.200 C 372.595 30.769,372.446 30.154,372.394 29.833 C 372.342 29.512,372.235 29.128,372.156 28.980 C 372.076 28.831,371.990 28.400,371.964 28.022 C 371.938 27.643,371.871 27.334,371.816 27.334 C 371.760 27.333,371.712 27.127,371.709 26.875 C 371.704 26.404,371.678 26.238,371.366 24.667 C 371.266 24.162,371.147 23.450,371.102 23.083 C 370.981 22.104,370.855 21.315,370.727 20.750 C 370.666 20.475,370.595 20.063,370.572 19.833 C 370.548 19.604,370.478 19.229,370.417 19.000 C 370.356 18.771,370.235 18.246,370.149 17.833 C 369.663 15.500,369.569 15.124,369.335 14.583 C 369.256 14.400,369.144 13.967,369.087 13.620 C 369.021 13.221,368.916 13.032,368.799 13.104 C 368.695 13.169,368.662 13.143,368.722 13.045 C 368.827 12.876,368.543 11.833,368.348 11.667 C 368.294 11.621,368.247 11.508,368.243 11.417 C 368.239 11.325,368.036 10.817,367.792 10.288 C 367.548 9.759,367.350 9.285,367.352 9.234 C 367.354 9.183,367.202 9.008,367.014 8.845 C 366.826 8.683,366.712 8.510,366.760 8.462 C 366.838 8.384,366.160 7.573,365.034 6.399 C 364.824 6.180,364.542 6.000,364.409 6.000 C 364.276 6.000,364.185 5.919,364.208 5.821 C 364.231 5.723,363.950 5.522,363.583 5.374 C 363.217 5.227,362.877 5.049,362.829 4.979 C 362.750 4.864,362.005 4.674,361.330 4.597 C 361.191 4.581,360.980 4.507,360.861 4.434 C 360.647 4.301,356.558 4.164,356.436 4.286 M222.670 4.664 C 222.168 4.742,221.700 4.770,221.629 4.727 C 221.558 4.683,221.500 4.708,221.500 4.782 C 221.500 4.856,221.197 4.928,220.828 4.943 C 220.458 4.957,220.064 5.041,219.953 5.130 C 219.728 5.309,218.788 5.512,218.208 5.507 C 218.002 5.505,217.833 5.565,217.833 5.641 C 217.833 5.716,217.740 5.786,217.625 5.796 C 217.510 5.806,217.304 5.844,217.167 5.880 C 217.029 5.917,216.635 6.004,216.292 6.075 C 215.948 6.146,215.667 6.270,215.667 6.352 C 215.667 6.433,215.610 6.485,215.542 6.466 C 215.406 6.429,214.379 6.750,213.583 7.080 C 212.519 7.520,212.245 7.622,212.102 7.630 C 212.021 7.634,211.908 7.702,211.852 7.781 C 211.763 7.906,210.893 8.343,210.667 8.377 C 210.593 8.388,209.742 8.829,208.567 9.467 C 208.347 9.587,208.167 9.760,208.167 9.852 C 208.167 9.944,208.100 9.978,208.018 9.928 C 207.700 9.731,203.168 13.274,203.167 13.718 C 203.167 13.792,203.105 13.815,203.030 13.769 C 202.955 13.722,202.336 14.254,201.655 14.951 C 200.974 15.648,200.393 16.203,200.364 16.184 C 200.336 16.165,200.011 16.529,199.642 16.992 C 199.273 17.455,198.903 17.833,198.819 17.833 C 198.735 17.833,198.682 17.890,198.702 17.958 C 198.721 18.027,198.574 18.271,198.376 18.500 C 198.047 18.879,196.845 20.344,196.530 20.750 C 196.458 20.842,196.254 21.176,196.075 21.492 C 195.896 21.809,195.563 22.285,195.333 22.550 C 195.104 22.815,194.931 23.081,194.948 23.141 C 194.966 23.201,194.843 23.400,194.675 23.583 C 194.508 23.767,194.204 24.254,194.000 24.667 C 193.796 25.079,193.457 25.646,193.246 25.927 C 192.809 26.511,192.293 27.665,192.467 27.669 C 192.531 27.671,192.507 27.727,192.413 27.794 C 192.159 27.976,191.674 28.779,191.612 29.119 C 191.582 29.283,191.400 29.754,191.207 30.167 C 190.773 31.093,190.606 31.528,190.590 31.769 C 190.584 31.871,190.496 32.059,190.395 32.186 C 190.294 32.313,190.205 32.529,190.197 32.667 C 190.188 32.804,189.990 33.455,189.757 34.113 C 189.524 34.772,189.305 35.522,189.272 35.780 C 189.238 36.039,189.165 36.362,189.110 36.500 C 188.543 37.912,188.367 45.197,188.876 46.223 C 188.959 46.391,189.062 46.729,189.105 46.973 C 189.442 48.906,191.676 53.167,192.353 53.167 C 192.434 53.167,192.500 53.264,192.500 53.384 C 192.500 53.642,193.460 54.575,193.875 54.721 C 194.035 54.777,194.167 54.929,194.167 55.059 C 194.167 55.189,194.429 55.420,194.750 55.572 C 195.071 55.724,195.333 55.907,195.333 55.977 C 195.333 56.048,195.652 56.281,196.042 56.495 C 196.431 56.709,196.851 56.963,196.975 57.060 C 197.099 57.156,197.312 57.252,197.448 57.272 C 197.584 57.292,197.829 57.429,197.992 57.576 C 198.155 57.723,198.429 57.876,198.602 57.915 C 199.029 58.012,200.081 58.400,201.050 58.817 C 201.524 59.022,201.800 59.078,201.726 58.956 C 201.629 58.793,201.656 58.793,201.854 58.954 C 202.097 59.150,203.787 59.597,204.042 59.532 C 204.110 59.514,204.167 59.563,204.167 59.639 C 204.167 59.715,204.410 59.781,204.708 59.784 C 205.006 59.788,205.847 59.877,206.577 59.982 C 207.317 60.089,208.826 60.138,209.993 60.093 C 211.942 60.018,212.337 59.978,213.539 59.734 C 213.789 59.683,214.014 59.649,214.039 59.659 C 214.063 59.668,214.452 59.565,214.903 59.429 C 215.355 59.293,215.786 59.221,215.862 59.268 C 215.938 59.315,216.000 59.274,216.000 59.177 C 216.000 59.079,216.056 59.009,216.125 59.020 C 216.465 59.073,216.844 58.985,216.772 58.869 C 216.727 58.796,216.870 58.723,217.088 58.704 C 217.570 58.665,219.867 57.667,220.039 57.424 C 220.106 57.328,220.163 57.318,220.164 57.401 C 220.166 57.484,220.298 57.446,220.458 57.317 C 220.619 57.189,221.090 56.913,221.507 56.704 C 221.923 56.495,222.465 56.137,222.712 55.908 C 222.958 55.680,223.208 55.506,223.267 55.522 C 223.326 55.538,223.646 55.333,223.979 55.068 C 224.311 54.802,224.621 54.584,224.667 54.584 C 224.943 54.581,229.833 49.702,229.833 49.429 C 229.833 49.386,230.005 49.166,230.214 48.940 C 230.424 48.714,230.704 48.316,230.838 48.056 C 230.972 47.796,231.213 47.462,231.374 47.314 C 231.535 47.166,231.667 46.933,231.667 46.798 C 231.667 46.662,231.814 46.419,231.994 46.256 C 232.397 45.891,233.014 44.736,232.878 44.600 C 232.823 44.545,232.853 44.500,232.945 44.500 C 233.081 44.500,233.566 43.690,233.518 43.543 C 233.510 43.521,233.655 43.235,233.839 42.907 C 234.023 42.580,234.123 42.230,234.061 42.130 C 233.999 42.030,234.025 41.996,234.120 42.054 C 234.252 42.136,234.821 41.032,234.921 40.500 C 234.930 40.454,235.055 40.146,235.200 39.816 C 235.345 39.485,235.517 38.960,235.584 38.649 C 235.651 38.338,235.761 38.008,235.830 37.917 C 235.898 37.825,236.081 37.300,236.236 36.750 C 236.391 36.200,236.623 35.382,236.752 34.932 C 236.881 34.481,236.946 34.047,236.896 33.966 C 236.846 33.885,236.894 33.710,237.004 33.578 C 237.114 33.446,237.161 33.227,237.109 33.091 C 237.057 32.955,237.088 32.799,237.177 32.744 C 237.266 32.689,237.302 32.584,237.257 32.512 C 237.213 32.440,237.294 31.756,237.438 30.992 C 237.582 30.228,237.660 29.355,237.610 29.052 C 237.561 28.748,237.577 28.500,237.645 28.500 C 237.890 28.500,237.709 21.482,237.431 20.197 C 237.286 19.527,237.167 18.796,237.167 18.572 C 237.167 18.349,237.098 18.167,237.015 18.167 C 236.931 18.167,236.883 18.035,236.907 17.875 C 236.931 17.715,236.880 17.358,236.794 17.083 C 236.708 16.808,236.632 16.490,236.624 16.375 C 236.617 16.260,236.549 16.167,236.472 16.167 C 236.396 16.167,236.350 16.110,236.370 16.042 C 236.438 15.809,235.769 14.167,235.606 14.167 C 235.517 14.167,235.492 14.119,235.551 14.060 C 235.718 13.894,234.996 12.983,234.795 13.107 C 234.696 13.168,234.659 13.147,234.713 13.059 C 234.919 12.727,233.410 11.667,232.730 11.667 C 232.571 11.667,232.201 11.580,231.908 11.474 C 231.601 11.363,231.243 11.339,231.063 11.417 C 230.891 11.492,230.696 11.542,230.631 11.528 C 230.565 11.515,230.303 11.590,230.047 11.694 C 229.792 11.799,229.480 11.905,229.353 11.931 C 229.227 11.956,229.043 12.057,228.945 12.155 C 228.847 12.253,228.632 12.333,228.467 12.333 C 228.302 12.333,228.167 12.408,228.167 12.500 C 228.167 12.592,228.105 12.667,228.030 12.667 C 227.902 12.667,226.492 13.422,225.762 13.881 C 225.585 13.992,225.222 14.271,224.954 14.500 C 224.687 14.729,224.457 14.881,224.442 14.838 C 224.428 14.795,223.980 15.183,223.446 15.700 C 222.912 16.217,222.357 16.686,222.214 16.741 C 222.070 16.796,222.001 16.890,222.061 16.950 C 222.121 17.009,221.962 17.195,221.710 17.361 C 221.457 17.528,221.315 17.665,221.394 17.666 C 221.473 17.666,221.415 17.854,221.265 18.083 C 221.115 18.313,221.050 18.501,221.121 18.503 C 221.192 18.504,221.146 18.571,221.019 18.651 C 220.317 19.096,220.963 21.203,222.521 23.550 C 222.874 24.082,223.080 24.466,222.981 24.405 C 222.783 24.283,223.324 25.188,223.542 25.346 C 223.615 25.398,223.704 25.596,223.741 25.785 C 223.777 25.974,223.879 26.269,223.966 26.439 C 224.609 27.691,225.489 30.348,225.591 31.347 C 225.625 31.676,225.721 32.248,225.804 32.618 C 226.230 34.515,225.637 38.651,224.552 41.340 C 224.421 41.665,224.292 42.040,224.266 42.174 C 224.176 42.628,223.855 43.301,223.674 43.412 C 223.575 43.473,223.538 43.593,223.590 43.678 C 223.643 43.764,223.602 43.833,223.500 43.833 C 223.398 43.833,223.355 43.900,223.405 43.980 C 223.455 44.061,223.346 44.317,223.164 44.548 C 222.982 44.780,222.833 45.051,222.833 45.151 C 222.833 45.251,222.777 45.333,222.707 45.333 C 222.638 45.333,222.477 45.570,222.349 45.858 C 222.221 46.147,221.997 46.514,221.850 46.673 C 221.129 47.456,220.227 48.580,220.036 48.936 C 219.919 49.154,219.747 49.333,219.653 49.333 C 219.560 49.333,219.319 49.505,219.117 49.715 C 218.262 50.606,215.291 52.648,215.601 52.132 C 215.706 51.958,215.681 51.957,215.472 52.126 C 214.695 52.755,212.104 52.968,210.917 52.501 C 210.642 52.392,210.286 52.277,210.126 52.245 C 209.611 52.141,208.019 50.989,207.522 50.360 C 206.961 49.651,205.996 48.046,205.905 47.673 C 205.871 47.532,205.660 46.892,205.435 46.250 C 205.048 45.143,204.474 42.821,204.519 42.545 C 204.530 42.475,204.524 42.342,204.505 42.250 C 204.486 42.158,204.468 41.802,204.465 41.458 C 204.461 41.115,204.412 40.833,204.354 40.833 C 204.297 40.833,204.230 39.883,204.207 38.722 C 204.183 37.561,204.131 36.436,204.093 36.222 C 204.054 36.008,204.083 35.833,204.157 35.833 C 204.232 35.833,204.294 35.365,204.295 34.792 C 204.300 32.992,204.437 32.091,205.030 29.958 C 205.139 29.569,205.215 29.199,205.201 29.136 C 205.186 29.074,205.289 28.747,205.430 28.410 C 205.571 28.073,205.644 27.755,205.593 27.704 C 205.541 27.652,205.624 27.473,205.775 27.305 C 205.927 27.137,206.001 27.000,205.939 27.000 C 205.877 27.000,205.946 26.816,206.094 26.591 C 206.241 26.366,206.317 26.108,206.261 26.018 C 206.205 25.928,206.292 25.776,206.455 25.682 C 206.617 25.587,206.692 25.508,206.621 25.505 C 206.550 25.502,206.607 25.276,206.749 25.002 C 206.891 24.728,206.992 24.484,206.975 24.460 C 206.958 24.436,207.143 24.099,207.388 23.712 C 207.633 23.324,207.833 22.933,207.833 22.844 C 207.833 22.688,208.478 21.636,208.831 21.215 C 208.924 21.105,209.000 20.953,209.000 20.878 C 209.000 20.802,209.227 20.480,209.504 20.162 C 209.781 19.844,210.063 19.508,210.132 19.417 C 210.646 18.723,211.000 18.304,211.000 18.387 C 211.000 18.441,211.356 18.097,211.792 17.621 C 212.845 16.471,213.602 15.765,214.458 15.133 C 214.848 14.845,215.167 14.535,215.167 14.444 C 215.167 14.353,215.211 14.322,215.264 14.375 C 215.318 14.429,215.486 14.366,215.639 14.235 C 215.792 14.104,215.992 13.989,216.083 13.978 C 216.175 13.968,216.462 13.781,216.721 13.563 C 216.980 13.345,217.331 13.167,217.501 13.167 C 217.671 13.167,217.909 13.068,218.030 12.946 C 218.151 12.825,218.307 12.716,218.376 12.704 C 219.369 12.527,219.667 12.442,219.667 12.336 C 219.667 12.266,219.962 12.162,220.324 12.104 C 220.685 12.046,221.191 11.912,221.449 11.805 C 222.010 11.572,221.962 11.589,222.583 11.422 C 222.858 11.348,223.158 11.243,223.250 11.188 C 223.342 11.133,223.473 11.078,223.542 11.065 C 223.610 11.052,223.704 11.023,223.750 11.000 C 223.796 10.977,223.890 10.946,223.958 10.930 C 224.431 10.823,225.333 10.410,225.333 10.300 C 225.333 10.227,225.390 10.182,225.458 10.201 C 225.674 10.260,226.596 9.704,227.015 9.262 C 227.236 9.030,227.470 8.838,227.535 8.836 C 227.774 8.830,229.333 7.172,229.333 6.923 C 229.333 6.782,229.400 6.667,229.482 6.667 C 230.127 6.667,229.715 5.383,228.937 4.966 C 228.306 4.629,224.181 4.430,222.670 4.664 M130.778 4.776 C 130.763 4.790,130.487 4.845,130.167 4.899 C 128.326 5.205,127.561 5.410,126.539 5.868 C 126.105 6.062,125.694 6.209,125.625 6.194 C 125.556 6.179,125.500 6.252,125.500 6.355 C 125.500 6.459,125.354 6.671,125.175 6.826 C 124.750 7.195,124.979 7.661,126.172 8.854 C 127.089 9.772,127.254 10.735,126.679 11.810 C 126.574 12.006,126.547 12.168,126.619 12.169 C 126.691 12.171,126.675 12.227,126.583 12.294 C 126.491 12.362,126.329 12.604,126.222 12.833 C 125.347 14.706,125.098 15.267,125.091 15.381 C 125.087 15.453,125.008 15.566,124.917 15.631 C 124.825 15.696,124.724 15.900,124.692 16.083 C 124.660 16.267,124.585 16.454,124.525 16.500 C 124.353 16.632,123.167 19.077,123.167 19.299 C 123.167 19.410,123.087 19.500,122.990 19.500 C 122.893 19.500,122.855 19.567,122.905 19.648 C 122.955 19.729,122.885 19.888,122.748 20.002 C 122.612 20.115,122.500 20.311,122.500 20.437 C 122.500 20.563,122.440 20.667,122.367 20.667 C 122.294 20.667,122.133 20.948,122.010 21.292 C 121.887 21.635,121.741 21.954,121.685 22.000 C 121.549 22.112,120.500 24.216,120.500 24.377 C 120.500 24.446,120.237 24.877,119.916 25.334 C 119.595 25.792,119.329 26.222,119.325 26.291 C 119.308 26.629,119.118 27.167,119.015 27.167 C 118.952 27.167,118.799 27.448,118.675 27.792 C 118.551 28.135,118.261 28.717,118.030 29.083 C 117.799 29.450,117.616 29.765,117.624 29.784 C 117.631 29.803,117.382 30.291,117.071 30.868 C 116.434 32.046,115.387 34.163,115.315 34.417 C 115.289 34.508,115.113 34.712,114.925 34.869 C 114.737 35.027,114.636 35.158,114.700 35.161 C 114.764 35.164,114.520 35.689,114.158 36.328 C 113.796 36.967,113.500 37.532,113.500 37.583 C 113.500 37.635,113.204 38.200,112.842 38.838 C 112.480 39.477,112.212 40.000,112.246 40.000 C 112.281 40.000,112.052 40.427,111.738 40.949 C 111.424 41.470,111.167 42.000,111.167 42.125 C 111.167 42.250,111.092 42.307,111.000 42.250 C 110.908 42.193,110.833 42.269,110.833 42.419 C 110.833 42.716,110.010 44.216,109.797 44.306 C 109.724 44.337,109.707 44.430,109.759 44.514 C 109.811 44.598,109.774 44.667,109.677 44.667 C 109.579 44.667,109.500 44.740,109.500 44.830 C 109.500 44.920,109.240 45.400,108.922 45.897 C 108.604 46.393,108.323 46.899,108.297 47.021 C 108.271 47.143,108.151 47.348,108.030 47.478 C 107.909 47.607,107.685 47.909,107.531 48.148 C 107.378 48.388,107.192 48.658,107.117 48.750 C 107.043 48.842,106.500 49.704,105.912 50.667 C 105.324 51.629,104.765 52.507,104.671 52.618 C 104.577 52.729,104.500 52.897,104.500 52.993 C 104.500 53.089,104.444 53.167,104.375 53.167 C 104.306 53.167,103.987 53.561,103.667 54.042 C 103.346 54.523,103.008 54.970,102.917 55.036 C 102.825 55.101,102.750 55.216,102.750 55.292 C 102.750 55.367,102.501 55.689,102.197 56.006 C 99.632 58.682,102.587 60.624,106.870 59.078 C 107.262 58.936,107.714 58.790,107.875 58.753 C 108.163 58.687,109.274 58.154,110.958 57.273 C 111.440 57.022,111.833 56.732,111.833 56.630 C 111.833 56.528,111.876 56.487,111.927 56.539 C 111.979 56.590,112.247 56.434,112.522 56.191 C 114.081 54.817,114.970 53.920,114.894 53.797 C 114.847 53.721,114.883 53.679,114.975 53.704 C 115.144 53.751,116.500 52.056,116.500 51.796 C 116.500 51.717,116.640 51.503,116.811 51.319 C 116.982 51.136,117.333 50.595,117.593 50.118 C 117.852 49.641,118.162 49.151,118.282 49.030 C 118.402 48.909,118.500 48.738,118.500 48.650 C 118.500 48.562,118.796 47.967,119.158 47.328 C 119.520 46.689,119.768 46.167,119.708 46.167 C 119.649 46.167,119.690 46.077,119.800 45.967 C 119.910 45.857,120.000 45.640,120.000 45.484 C 120.000 45.329,120.112 45.159,120.250 45.106 C 120.388 45.054,120.500 44.863,120.500 44.682 C 120.500 44.501,120.566 44.312,120.646 44.263 C 120.826 44.151,121.738 42.296,121.697 42.125 C 121.680 42.056,121.727 42.000,121.801 42.000 C 121.875 42.000,122.118 41.513,122.342 40.918 C 122.567 40.322,122.806 39.835,122.875 39.834 C 122.944 39.834,123.000 39.719,123.000 39.580 C 123.000 39.441,123.177 39.047,123.392 38.705 C 123.608 38.363,123.790 38.024,123.797 37.953 C 123.811 37.799,124.421 36.446,124.763 35.808 C 124.893 35.564,125.000 35.278,125.000 35.171 C 125.000 35.064,125.204 34.627,125.454 34.201 C 125.704 33.775,125.920 33.350,125.934 33.255 C 125.949 33.161,126.223 32.521,126.543 31.833 C 126.864 31.146,127.182 30.399,127.252 30.174 C 127.321 29.950,127.477 29.666,127.598 29.545 C 127.720 29.423,127.777 29.213,127.725 29.079 C 127.673 28.944,127.703 28.833,127.790 28.833 C 127.878 28.833,128.081 28.515,128.242 28.125 C 128.403 27.735,128.615 27.267,128.713 27.083 C 128.812 26.900,129.138 26.150,129.439 25.417 C 130.076 23.865,130.222 23.851,130.289 25.333 C 130.316 25.929,130.380 26.529,130.431 26.667 C 130.518 26.901,130.664 28.570,130.730 30.083 C 130.746 30.450,130.805 30.825,130.862 30.917 C 130.919 31.008,130.942 31.290,130.914 31.542 C 130.886 31.794,130.929 32.000,131.009 32.000 C 131.090 32.000,131.115 32.107,131.065 32.238 C 130.985 32.446,131.093 33.391,131.436 35.500 C 131.488 35.821,131.593 36.624,131.668 37.285 C 131.743 37.945,131.841 38.545,131.885 38.618 C 131.928 38.691,132.010 39.087,132.067 39.500 C 132.216 40.591,132.326 41.166,132.531 41.917 C 132.631 42.283,132.732 42.771,132.756 43.000 C 132.781 43.229,132.813 43.417,132.830 43.417 C 132.846 43.417,132.884 43.545,132.914 43.702 C 132.944 43.859,133.118 44.459,133.301 45.035 C 133.484 45.612,133.770 46.584,133.936 47.196 C 134.103 47.808,134.281 48.282,134.334 48.250 C 134.386 48.218,134.442 48.317,134.457 48.471 C 134.536 49.232,134.719 49.820,134.852 49.738 C 134.933 49.688,135.000 49.759,135.000 49.896 C 135.000 50.033,135.087 50.356,135.194 50.614 C 135.301 50.872,135.396 51.121,135.405 51.167 C 135.414 51.212,135.481 51.344,135.554 51.458 C 135.627 51.573,135.639 51.667,135.582 51.667 C 135.524 51.667,135.619 51.873,135.793 52.125 C 135.966 52.377,136.357 53.071,136.660 53.667 C 137.345 55.009,138.128 56.167,138.351 56.167 C 138.444 56.167,138.481 56.229,138.434 56.305 C 138.387 56.381,138.902 56.962,139.577 57.597 C 141.083 59.010,141.333 59.216,141.336 59.048 C 141.337 58.976,141.395 59.006,141.465 59.116 C 141.759 59.579,143.134 59.760,143.968 59.445 C 144.398 59.283,144.853 59.129,144.980 59.104 C 145.279 59.044,147.044 57.488,146.936 57.380 C 146.891 57.335,147.003 57.137,147.187 56.941 C 147.370 56.744,147.757 56.096,148.046 55.500 C 148.336 54.904,148.622 54.379,148.682 54.333 C 148.842 54.211,149.571 52.604,149.533 52.458 C 149.515 52.390,149.568 52.333,149.650 52.333 C 149.781 52.333,150.212 51.359,150.158 51.185 C 150.147 51.150,150.201 51.075,150.277 51.019 C 150.508 50.850,150.833 50.190,150.833 49.891 C 150.833 49.737,150.880 49.658,150.937 49.715 C 150.994 49.771,151.226 49.428,151.452 48.951 C 151.678 48.474,152.157 47.499,152.515 46.786 C 152.873 46.072,153.167 45.403,153.167 45.299 C 153.167 45.195,153.285 44.979,153.429 44.819 C 153.574 44.660,153.708 44.417,153.729 44.279 C 153.777 43.946,154.384 42.765,154.542 42.694 C 154.610 42.664,154.667 42.504,154.667 42.340 C 154.667 42.175,154.778 41.948,154.915 41.835 C 155.051 41.722,155.122 41.562,155.072 41.481 C 155.021 41.400,155.052 41.333,155.139 41.333 C 155.226 41.333,155.349 41.128,155.412 40.877 C 155.475 40.626,155.577 40.382,155.638 40.335 C 155.700 40.288,155.926 39.875,156.142 39.417 C 156.357 38.958,156.601 38.471,156.684 38.333 C 156.767 38.196,156.878 37.971,156.930 37.833 C 156.982 37.696,157.095 37.471,157.182 37.333 C 157.269 37.196,157.434 36.896,157.549 36.667 C 157.664 36.438,157.941 35.912,158.163 35.500 C 158.386 35.087,158.578 34.712,158.591 34.667 C 158.695 34.284,159.240 33.236,159.439 33.037 C 159.708 32.768,160.267 31.494,160.205 31.292 C 160.184 31.223,160.242 31.167,160.333 31.167 C 160.425 31.167,160.500 31.081,160.500 30.977 C 160.500 30.872,160.724 30.422,160.998 29.977 C 161.273 29.531,161.441 29.166,161.373 29.164 C 161.306 29.163,161.335 29.106,161.440 29.039 C 161.544 28.972,161.755 28.617,161.908 28.250 C 162.316 27.274,162.445 27.696,162.570 30.417 C 162.629 31.700,162.718 33.650,162.767 34.750 C 162.993 39.751,163.114 41.285,163.433 43.167 C 163.487 43.487,163.533 43.956,163.535 44.208 C 163.537 44.460,163.603 44.667,163.681 44.667 C 163.759 44.667,163.781 44.776,163.730 44.909 C 163.679 45.042,163.696 45.245,163.767 45.361 C 163.838 45.477,163.923 45.836,163.956 46.161 C 164.107 47.679,165.629 51.268,166.750 52.749 C 167.025 53.113,167.362 53.559,167.500 53.742 C 168.148 54.601,170.876 57.167,171.142 57.167 C 171.219 57.167,171.418 57.317,171.584 57.501 C 171.751 57.685,171.923 57.800,171.966 57.756 C 172.010 57.712,172.242 57.814,172.481 57.982 C 172.903 58.277,174.077 58.742,174.417 58.747 C 174.508 58.749,174.625 58.806,174.676 58.875 C 174.878 59.146,179.203 59.435,179.575 59.203 C 179.671 59.142,179.875 59.074,180.027 59.050 C 180.499 58.976,182.500 57.967,182.500 57.802 C 182.500 57.717,182.564 57.687,182.642 57.735 C 182.721 57.783,182.959 57.638,183.171 57.412 C 183.384 57.185,183.658 57.000,183.779 57.000 C 183.901 57.000,184.000 56.887,184.000 56.750 C 184.000 56.612,184.066 56.500,184.146 56.500 C 184.389 56.500,185.500 55.408,185.500 55.169 C 185.500 55.045,185.547 54.992,185.605 55.050 C 185.791 55.236,186.840 53.632,187.044 52.849 C 187.161 52.403,186.783 51.333,186.509 51.333 C 186.412 51.333,186.333 51.247,186.333 51.141 C 186.333 50.901,185.054 49.668,184.932 49.790 C 184.883 49.839,184.771 49.690,184.683 49.459 C 184.595 49.227,184.330 48.845,184.095 48.610 C 183.859 48.374,183.667 48.107,183.667 48.016 C 183.667 47.925,183.573 47.790,183.458 47.717 C 183.344 47.643,183.148 47.402,183.022 47.180 C 182.162 45.654,182.000 45.325,182.000 45.101 C 182.000 44.963,181.869 44.773,181.708 44.680 C 181.548 44.587,181.470 44.508,181.535 44.505 C 181.600 44.502,181.452 44.106,181.207 43.625 C 180.961 43.144,180.752 42.712,180.741 42.667 C 180.731 42.621,180.635 42.372,180.528 42.114 C 180.421 41.856,180.333 41.532,180.333 41.395 C 180.333 41.257,180.256 41.001,180.162 40.825 C 180.068 40.649,179.920 40.185,179.834 39.794 C 179.748 39.403,179.521 38.521,179.328 37.833 C 179.136 37.146,178.951 36.382,178.916 36.135 C 178.880 35.889,178.774 35.400,178.680 35.049 C 178.585 34.698,178.470 34.037,178.424 33.580 C 178.377 33.124,178.307 32.487,178.268 32.167 C 178.051 30.372,177.835 28.320,177.853 28.210 C 177.864 28.140,177.854 28.046,177.832 28.000 C 177.731 27.794,177.557 23.559,177.521 20.417 C 177.497 18.270,177.537 16.813,177.770 11.500 C 178.018 5.846,177.922 5.355,176.488 4.937 C 175.340 4.603,171.012 4.799,169.382 5.260 C 168.905 5.395,168.455 5.487,168.382 5.464 C 168.310 5.442,167.912 5.566,167.500 5.740 C 167.087 5.915,166.656 6.041,166.542 6.021 C 166.427 6.002,166.333 6.051,166.333 6.131 C 166.333 6.211,165.959 6.452,165.500 6.666 C 165.042 6.881,164.705 7.094,164.750 7.139 C 164.795 7.184,164.607 7.358,164.333 7.525 C 164.058 7.692,163.833 7.933,163.833 8.062 C 163.833 8.190,163.639 8.422,163.402 8.577 C 163.165 8.733,163.009 8.898,163.055 8.944 C 163.101 8.990,163.014 9.160,162.861 9.322 C 162.402 9.809,162.086 10.260,162.029 10.512 C 161.999 10.643,161.905 10.775,161.820 10.806 C 161.734 10.837,161.707 10.930,161.759 11.014 C 161.811 11.098,161.779 11.167,161.688 11.167 C 161.597 11.167,161.469 11.335,161.404 11.542 C 161.338 11.748,161.096 12.216,160.865 12.582 C 160.633 12.948,160.444 13.342,160.444 13.457 C 160.444 13.572,160.391 13.667,160.325 13.667 C 160.134 13.667,159.155 15.680,159.262 15.853 C 159.315 15.938,159.269 15.988,159.160 15.962 C 159.050 15.937,158.941 16.029,158.917 16.167 C 158.866 16.461,157.822 18.712,157.681 18.833 C 157.524 18.968,156.985 19.980,156.995 20.121 C 157.000 20.192,156.816 20.538,156.586 20.890 C 156.355 21.242,156.167 21.596,156.167 21.676 C 156.167 21.757,155.878 22.406,155.525 23.120 C 154.810 24.566,154.454 25.384,154.499 25.481 C 154.515 25.517,154.466 25.592,154.389 25.648 C 154.243 25.755,153.500 27.211,153.500 27.391 C 153.500 27.448,153.275 27.959,153.000 28.527 C 152.725 29.095,152.500 29.658,152.500 29.780 C 152.500 29.901,152.413 30.000,152.306 30.000 C 152.199 30.000,152.161 30.050,152.222 30.111 C 152.283 30.172,152.142 30.548,151.908 30.947 C 151.674 31.345,151.529 31.745,151.585 31.836 C 151.641 31.926,151.616 32.000,151.530 32.000 C 151.444 32.000,151.283 32.244,151.172 32.542 C 151.061 32.840,150.865 33.282,150.735 33.526 C 150.606 33.769,150.500 34.056,150.500 34.163 C 150.500 34.270,150.387 34.470,150.250 34.607 C 150.029 34.828,149.914 35.313,149.984 35.721 C 149.998 35.796,149.931 35.811,149.837 35.753 C 149.695 35.664,149.582 35.911,149.706 36.042 C 149.728 36.065,149.579 36.353,149.375 36.683 C 149.171 37.012,149.053 37.331,149.113 37.391 C 149.173 37.451,149.135 37.500,149.028 37.500 C 148.921 37.500,148.831 37.631,148.828 37.792 C 148.813 38.619,147.971 38.724,147.827 37.917 C 147.811 37.825,147.647 37.455,147.463 37.093 C 147.278 36.732,147.095 36.207,147.056 35.927 C 147.016 35.646,146.939 35.304,146.883 35.167 C 146.828 35.029,146.773 34.842,146.761 34.750 C 146.749 34.658,146.672 34.246,146.590 33.833 C 146.508 33.421,146.461 32.906,146.485 32.690 C 146.512 32.443,146.462 32.337,146.350 32.407 C 146.245 32.471,146.206 32.424,146.257 32.293 C 146.304 32.169,146.229 31.526,146.090 30.863 C 145.950 30.200,145.844 29.604,145.854 29.537 C 145.865 29.471,145.857 29.379,145.839 29.333 C 145.820 29.287,145.778 29.025,145.746 28.750 C 145.714 28.475,145.657 28.063,145.618 27.833 C 145.528 27.292,145.289 25.655,145.253 25.333 C 145.238 25.196,145.180 24.933,145.123 24.750 C 145.067 24.567,144.978 23.952,144.925 23.384 C 144.873 22.815,144.793 22.253,144.748 22.134 C 144.703 22.014,144.634 21.692,144.595 21.417 C 144.556 21.142,144.479 20.710,144.425 20.458 C 144.371 20.206,144.300 19.794,144.268 19.542 C 144.235 19.290,144.158 18.821,144.095 18.500 C 144.032 18.179,143.959 17.804,143.932 17.667 C 143.905 17.529,143.840 17.304,143.788 17.167 C 143.735 17.029,143.656 16.692,143.613 16.417 C 143.569 16.142,143.485 15.729,143.426 15.500 C 143.368 15.271,143.250 14.708,143.165 14.250 C 143.080 13.792,142.899 13.117,142.763 12.750 C 142.626 12.383,142.511 11.980,142.507 11.853 C 142.493 11.408,141.093 8.408,140.534 7.625 C 140.002 6.880,139.685 6.579,139.919 7.042 C 139.977 7.156,139.866 7.048,139.671 6.800 C 139.012 5.961,135.844 4.804,134.551 4.929 C 134.248 4.959,134.000 4.930,134.000 4.866 C 134.000 4.773,130.876 4.685,130.778 4.776 M85.942 20.862 C 85.777 20.955,85.598 20.987,85.545 20.933 C 85.491 20.880,85.347 20.920,85.224 21.022 C 85.101 21.124,85.000 21.159,85.000 21.100 C 85.000 21.041,84.705 21.144,84.344 21.328 C 83.729 21.641,81.500 23.629,81.500 23.864 C 81.500 23.923,81.236 24.371,80.913 24.860 C 80.590 25.350,80.250 26.028,80.158 26.368 C 80.066 26.708,79.924 27.027,79.842 27.078 C 79.760 27.129,79.527 27.676,79.324 28.293 C 79.121 28.911,78.880 29.512,78.787 29.629 C 78.695 29.746,78.661 29.883,78.712 29.934 C 78.763 29.985,78.698 30.284,78.567 30.597 C 78.436 30.910,78.362 31.167,78.403 31.167 C 78.443 31.167,78.265 31.748,78.005 32.458 C 77.746 33.169,77.530 33.807,77.524 33.876 C 77.497 34.233,77.295 35.281,77.212 35.500 C 77.160 35.637,77.088 35.900,77.053 36.083 C 77.019 36.267,76.917 36.442,76.827 36.473 C 76.738 36.503,76.702 36.589,76.748 36.663 C 76.794 36.737,76.721 37.109,76.587 37.490 C 76.453 37.870,76.325 38.441,76.304 38.758 C 76.283 39.074,76.201 39.333,76.123 39.333 C 76.044 39.333,76.018 39.395,76.064 39.469 C 76.111 39.544,76.010 40.163,75.842 40.844 C 75.673 41.526,75.527 42.215,75.518 42.375 C 75.508 42.535,75.491 42.798,75.480 42.958 C 75.469 43.119,75.359 43.700,75.237 44.250 C 75.114 44.800,75.013 45.400,75.012 45.583 C 75.011 45.767,74.980 46.179,74.943 46.500 C 74.907 46.821,74.786 47.886,74.675 48.867 C 74.414 51.166,74.534 54.895,74.918 56.417 C 75.135 57.277,76.500 59.578,76.500 59.083 C 76.500 59.024,76.692 59.127,76.927 59.312 C 77.167 59.500,77.472 59.603,77.621 59.546 C 77.799 59.478,77.848 59.509,77.768 59.638 C 77.554 59.983,80.898 59.892,81.154 59.546 C 81.207 59.475,81.400 59.396,81.583 59.370 C 82.245 59.278,82.400 59.218,82.464 59.026 C 82.499 58.919,82.589 58.868,82.662 58.914 C 82.735 58.959,82.888 58.885,83.002 58.748 C 83.115 58.612,83.300 58.500,83.413 58.500 C 83.676 58.500,86.264 56.017,86.208 55.817 C 86.185 55.734,86.244 55.667,86.339 55.667 C 86.524 55.667,87.275 54.493,87.212 54.302 C 87.191 54.240,87.287 53.868,87.425 53.477 C 87.563 53.085,87.640 52.670,87.595 52.554 C 87.551 52.439,87.587 52.299,87.676 52.244 C 87.764 52.190,87.830 51.943,87.822 51.697 C 87.794 50.852,88.005 48.416,88.184 47.528 C 88.282 47.039,88.318 46.463,88.264 46.247 C 88.210 46.031,88.240 45.808,88.330 45.752 C 88.421 45.696,88.485 45.222,88.473 44.700 C 88.447 43.600,88.615 40.582,88.824 38.417 C 88.903 37.592,88.977 36.804,88.987 36.667 C 89.032 36.074,89.135 35.243,89.172 35.167 C 89.194 35.121,89.223 34.896,89.235 34.667 C 89.259 34.247,89.779 31.964,89.957 31.500 C 90.010 31.363,90.035 31.175,90.013 31.083 C 89.992 30.992,90.120 31.067,90.299 31.250 C 90.477 31.433,90.598 31.612,90.568 31.647 C 90.537 31.682,90.599 31.869,90.707 32.064 C 90.814 32.258,90.882 32.548,90.857 32.708 C 90.832 32.869,90.897 33.000,90.999 33.000 C 91.102 33.000,91.151 33.057,91.107 33.128 C 91.064 33.198,91.095 33.611,91.176 34.046 C 91.258 34.482,91.370 35.943,91.427 37.294 C 91.598 41.350,91.626 41.575,92.043 42.212 C 92.573 43.020,93.250 42.953,94.149 42.004 C 94.837 41.276,95.174 40.834,95.040 40.831 C 94.972 40.829,94.992 40.773,95.083 40.706 C 95.315 40.536,95.878 39.500,95.739 39.500 C 95.677 39.500,95.719 39.387,95.833 39.250 C 95.947 39.112,95.985 39.000,95.917 39.000 C 95.848 39.000,95.876 38.899,95.978 38.776 C 96.080 38.653,96.114 38.503,96.054 38.443 C 95.994 38.383,96.032 38.333,96.139 38.333 C 96.246 38.333,96.333 38.146,96.333 37.917 C 96.333 37.688,96.396 37.500,96.472 37.500 C 96.549 37.500,96.615 37.406,96.619 37.292 C 96.639 36.813,96.829 36.123,96.997 35.920 C 97.097 35.800,97.160 35.638,97.139 35.559 C 97.117 35.481,97.202 34.892,97.328 34.250 C 97.454 33.608,97.576 32.933,97.598 32.750 C 97.621 32.567,97.654 32.379,97.672 32.333 C 98.032 31.440,97.936 24.583,97.551 23.702 C 97.419 23.401,97.300 23.000,97.286 22.811 C 97.198 21.651,94.017 20.032,93.699 20.986 C 93.666 21.085,93.521 21.167,93.377 21.167 C 93.099 21.167,91.931 21.987,92.046 22.101 C 92.083 22.138,91.751 22.562,91.308 23.043 C 90.865 23.523,90.502 23.973,90.501 24.042 C 90.500 24.110,90.437 24.167,90.360 24.167 C 90.233 24.167,89.841 23.107,89.848 22.784 C 89.862 22.146,88.145 20.905,87.179 20.855 C 86.773 20.834,86.396 20.789,86.342 20.755 C 86.287 20.722,86.108 20.770,85.942 20.862 M254.039 21.465 C 253.832 21.497,253.701 21.587,253.748 21.664 C 253.796 21.741,253.703 21.783,253.542 21.757 C 253.382 21.731,253.175 21.754,253.083 21.808 C 252.992 21.863,252.773 21.929,252.597 21.957 C 252.421 21.984,252.173 22.155,252.046 22.337 C 251.918 22.518,251.752 22.667,251.675 22.667 C 251.598 22.667,251.294 22.892,251.000 23.167 C 250.706 23.442,250.516 23.667,250.578 23.667 C 250.641 23.667,250.471 23.853,250.200 24.081 C 249.764 24.448,248.408 26.479,248.307 26.917 C 248.286 27.008,248.144 27.217,247.993 27.380 C 247.841 27.543,247.622 27.993,247.507 28.380 C 247.391 28.767,247.246 29.121,247.184 29.167 C 247.032 29.280,246.105 31.504,246.043 31.904 C 246.016 32.080,245.921 32.311,245.833 32.417 C 245.745 32.523,245.646 32.754,245.612 32.930 C 245.578 33.106,245.458 33.475,245.344 33.750 C 245.230 34.025,245.109 34.389,245.075 34.559 C 245.041 34.728,244.935 34.960,244.841 35.074 C 244.747 35.188,244.712 35.323,244.764 35.375 C 244.816 35.427,244.743 35.691,244.603 35.962 C 244.463 36.233,244.313 36.634,244.271 36.853 C 244.228 37.071,244.078 37.569,243.937 37.958 C 243.797 38.348,243.725 38.667,243.778 38.667 C 243.831 38.667,243.780 38.781,243.664 38.920 C 243.549 39.059,243.441 39.303,243.425 39.461 C 243.373 39.975,243.126 41.079,243.024 41.250 C 242.970 41.342,242.902 41.604,242.873 41.833 C 242.845 42.063,242.699 42.625,242.550 43.083 C 242.401 43.542,242.259 44.092,242.236 44.307 C 242.212 44.521,242.107 45.056,242.001 45.495 C 241.896 45.934,241.783 46.433,241.751 46.605 C 241.719 46.776,241.681 46.917,241.667 46.917 C 241.630 46.917,241.533 47.464,241.415 48.329 C 241.360 48.739,241.236 49.435,241.142 49.877 C 241.047 50.319,241.012 50.790,241.063 50.923 C 241.114 51.057,241.096 51.167,241.023 51.167 C 240.902 51.167,240.816 52.342,240.810 54.083 C 240.808 54.713,240.942 56.250,240.999 56.250 C 241.014 56.250,241.048 56.362,241.076 56.500 C 241.103 56.637,241.236 57.012,241.370 57.333 C 241.505 57.654,241.632 57.992,241.653 58.083 C 241.673 58.175,241.809 58.381,241.954 58.542 C 242.100 58.702,242.158 58.833,242.084 58.833 C 242.010 58.833,242.129 58.989,242.349 59.179 C 242.570 59.370,242.981 59.734,243.262 59.990 C 244.106 60.756,246.967 61.458,247.267 60.973 C 247.309 60.904,247.454 60.890,247.589 60.942 C 247.723 60.993,247.833 60.971,247.833 60.893 C 247.834 60.814,248.037 60.738,248.286 60.724 C 248.535 60.709,248.866 60.541,249.021 60.349 C 249.176 60.157,249.374 60.000,249.459 60.000 C 249.545 60.000,249.751 59.850,249.917 59.667 C 250.083 59.483,250.173 59.333,250.117 59.333 C 250.061 59.333,250.180 59.159,250.383 58.945 C 251.082 58.207,251.667 57.465,251.667 57.316 C 251.667 57.234,251.723 57.165,251.792 57.163 C 251.997 57.156,252.921 55.811,252.861 55.606 C 252.831 55.502,252.860 55.471,252.926 55.537 C 253.040 55.651,254.851 53.512,254.792 53.333 C 254.777 53.288,254.949 53.057,255.174 52.821 C 256.185 51.760,256.833 51.022,256.833 50.932 C 256.833 50.878,257.133 50.525,257.500 50.147 C 257.867 49.769,258.167 49.405,258.167 49.339 C 258.167 49.201,258.813 48.490,260.645 46.614 C 261.344 45.897,261.917 45.259,261.917 45.195 C 261.917 45.132,262.273 44.729,262.708 44.300 C 263.144 43.871,263.500 43.459,263.500 43.385 C 263.500 43.311,263.772 43.033,264.103 42.769 L 264.707 42.287 264.574 43.185 C 264.500 43.679,264.435 44.365,264.429 44.708 C 264.422 45.052,264.370 45.333,264.312 45.333 C 264.144 45.333,264.268 51.022,264.439 51.141 C 264.524 51.201,264.602 51.438,264.612 51.667 C 264.649 52.562,264.814 53.281,265.146 54.000 C 265.337 54.413,265.494 54.851,265.496 54.974 C 265.498 55.098,265.669 55.435,265.875 55.724 C 266.081 56.013,266.250 56.288,266.251 56.333 C 266.255 56.604,267.073 57.665,267.603 58.087 C 267.945 58.360,268.306 58.661,268.404 58.755 C 268.867 59.201,269.667 59.667,269.970 59.667 C 270.155 59.667,270.334 59.753,270.370 59.859 C 270.501 60.254,274.498 60.070,274.639 59.661 C 274.669 59.573,274.909 59.500,275.171 59.500 C 275.433 59.500,275.694 59.424,275.752 59.331 C 275.809 59.237,275.918 59.199,275.993 59.245 C 276.068 59.292,276.222 59.218,276.335 59.081 C 276.448 58.945,276.648 58.833,276.778 58.833 C 277.099 58.833,278.656 57.815,279.138 57.289 C 279.555 56.836,279.563 55.573,279.154 54.810 C 279.054 54.624,279.012 54.432,279.060 54.384 C 279.108 54.336,279.004 53.932,278.828 53.486 C 277.877 51.073,277.614 43.692,278.274 37.917 C 278.316 37.550,278.363 36.931,278.379 36.542 C 278.396 36.152,278.455 35.833,278.511 35.833 C 278.757 35.833,278.579 29.318,278.329 29.160 C 278.194 29.075,278.149 29.004,278.229 29.003 C 278.309 29.001,278.300 28.906,278.210 28.792 C 278.120 28.677,277.993 28.364,277.929 28.096 C 277.824 27.657,277.167 26.628,277.167 26.903 C 277.167 26.966,276.989 26.826,276.773 26.592 C 276.556 26.358,276.251 26.167,276.095 26.167 C 275.939 26.167,275.657 26.084,275.469 25.983 C 274.136 25.270,269.620 26.219,268.815 27.381 C 268.759 27.462,268.679 27.503,268.638 27.473 C 268.353 27.258,261.167 34.332,261.167 34.827 C 261.167 34.933,261.100 34.978,261.018 34.928 C 260.937 34.877,260.744 35.028,260.590 35.263 C 260.437 35.497,260.185 35.818,260.031 35.976 C 259.876 36.134,259.452 36.636,259.087 37.090 C 257.855 38.625,257.664 38.681,257.983 37.415 C 258.089 36.994,258.135 36.584,258.085 36.503 C 258.035 36.422,258.076 36.306,258.175 36.245 C 258.275 36.183,258.316 36.028,258.267 35.900 C 258.217 35.772,258.253 35.667,258.346 35.667 C 258.439 35.667,258.499 35.573,258.479 35.458 C 258.441 35.230,258.563 34.510,258.929 32.794 C 259.858 28.450,259.375 22.887,258.023 22.371 C 257.873 22.314,257.614 22.141,257.448 21.986 C 257.029 21.597,255.088 21.300,254.039 21.465 M45.869 21.832 C 45.842 21.946,45.900 22.281,45.998 22.577 C 46.095 22.872,46.212 23.399,46.256 23.746 C 46.301 24.094,46.492 24.950,46.681 25.648 C 46.869 26.346,47.044 27.104,47.068 27.333 C 47.093 27.563,47.167 27.919,47.234 28.125 C 47.301 28.331,47.362 28.725,47.370 29.000 C 47.378 29.275,47.443 29.500,47.516 29.500 C 47.588 29.500,47.619 29.650,47.583 29.833 C 47.548 30.017,47.594 30.167,47.686 30.167 C 47.778 30.167,47.810 30.236,47.758 30.320 C 47.706 30.404,47.786 30.910,47.936 31.445 C 48.085 31.979,48.207 32.622,48.207 32.873 C 48.206 33.145,48.275 33.286,48.379 33.222 C 48.480 33.159,48.501 33.196,48.431 33.311 C 48.364 33.418,48.388 33.749,48.485 34.045 C 48.581 34.341,48.704 34.956,48.757 35.412 C 48.811 35.868,48.924 36.325,49.009 36.428 C 49.094 36.530,49.114 36.663,49.054 36.724 C 48.906 36.872,38.333 36.864,38.333 36.716 C 38.333 36.651,38.682 35.883,39.107 35.008 C 39.533 34.133,39.852 33.417,39.816 33.417 C 39.781 33.417,39.920 33.180,40.126 32.891 C 40.332 32.602,40.500 32.282,40.500 32.180 C 40.500 32.079,40.567 31.865,40.648 31.706 C 40.730 31.547,40.973 31.042,41.188 30.583 C 41.403 30.125,41.617 29.712,41.664 29.667 C 41.805 29.530,42.364 28.273,42.425 27.955 C 42.457 27.793,42.636 27.444,42.824 27.179 C 43.013 26.915,43.168 26.598,43.170 26.474 C 43.172 26.351,43.321 26.063,43.500 25.833 C 43.679 25.604,43.828 25.325,43.830 25.213 C 43.832 25.101,44.075 24.539,44.370 23.963 C 44.666 23.388,44.891 22.860,44.870 22.792 C 44.850 22.723,44.893 22.667,44.967 22.667 C 45.040 22.667,45.196 22.400,45.314 22.074 C 45.507 21.540,45.985 21.331,45.869 21.832 M355.610 22.025 C 355.628 22.254,355.757 22.885,355.896 23.429 C 356.036 23.972,356.196 24.679,356.250 25.000 C 356.305 25.321,356.506 26.183,356.696 26.917 C 356.887 27.650,357.039 28.363,357.036 28.500 C 357.032 28.637,357.130 29.125,357.252 29.583 C 357.375 30.042,357.514 30.642,357.561 30.917 C 357.608 31.192,357.685 31.567,357.731 31.750 C 357.778 31.933,357.904 32.533,358.013 33.083 C 358.121 33.633,358.250 34.196,358.298 34.333 C 358.347 34.471,358.376 34.634,358.364 34.696 C 358.352 34.758,358.436 35.133,358.552 35.529 C 358.937 36.850,359.365 36.745,353.371 36.794 L 347.992 36.838 348.413 36.008 C 348.644 35.551,348.833 35.063,348.833 34.922 C 348.833 34.782,348.913 34.667,349.010 34.667 C 349.107 34.667,349.140 34.591,349.083 34.499 C 349.026 34.407,349.115 34.125,349.281 33.874 C 349.817 33.063,350.741 31.044,350.664 30.852 C 350.650 30.816,350.715 30.740,350.808 30.682 C 350.902 30.624,351.322 29.828,351.742 28.914 C 352.163 27.999,352.610 27.063,352.737 26.833 C 353.444 25.557,353.938 24.519,353.795 24.607 C 353.706 24.662,353.768 24.500,353.935 24.245 C 354.102 23.991,354.254 23.671,354.274 23.533 C 354.295 23.396,354.372 23.238,354.447 23.183 C 354.656 23.030,355.256 21.787,355.203 21.618 C 355.177 21.536,355.251 21.500,355.367 21.539 C 355.483 21.578,355.593 21.796,355.610 22.025 " stroke="none" fill="#fca41c" fill-rule="evenodd"></path><path id="path1" d="" stroke="none" fill="#100a41c" fill-rule="evenodd"></path><path id="path2" d="" stroke="none" fill="#100a41c" fill-rule="evenodd"></path><path id="path3" d="" stroke="none" fill="#100a41c" fill-rule="evenodd"></path><path id="path4" d="" stroke="none" fill="#100a41c" fill-rule="evenodd"></path></g></svg>